<!-- Generated by IcoMoon.io -->
<svg version="1.1" xmlns="http://www.w3.org/2000/svg" width="32" height="32" viewBox="0 0 32 32">
<title>abb-left</title>
<path d="M31.709 26.857c0 0 0-0 0-0 0-2.191-1.772-3.969-3.961-3.978h-0.001l-9.396-0.483c-0.108-1.989-0.516-4.944-0.599-5.526l4.386-6.758 0.191-0.283c0.625-0.971 0.996-2.157 0.996-3.429 0-3.531-2.859-6.394-6.388-6.4h-0.001c-2.429 0.012-4.538 1.372-5.618 3.37l-0.017 0.034-0.191 0.383-10.278 20.282-0.225 0.433c0 0.075-0.075 0.158-0.116 0.241l-0.058 0.116c-0.267 0.587-0.425 1.273-0.433 1.995l-0 0.003c0 2.841 2.303 5.143 5.143 5.143v0l22.604-1.207c2.175-0.009 3.938-1.763 3.962-3.934l0-0.002zM17.76 22.363l-3.454-0.183 2.963-4.561c0.15 1.115 0.408 3.188 0.491 4.744zM0.583 26.857c0.002-0.67 0.149-1.305 0.411-1.876l-0.012 0.028 0.341-0.674 10.395-20.498c0.981-1.915 2.941-3.203 5.202-3.203 3.194 0 5.787 2.57 5.825 5.754l0 0.004c0 0.008 0 0.016 0 0.025 0 1.146-0.335 2.213-0.913 3.11l0.014-0.023-12.775 19.674 0.241 0.158-0.241-0.15c-0.807 1.325-2.233 2.203-3.866 2.23l-0.004 0h-0.067c-2.513-0.009-4.548-2.047-4.552-4.56v-0zM27.739 30.244v0l-19.974 1.040c0.747-0.445 1.355-1.048 1.793-1.767l0.013-0.023 4.369-6.741 13.774 0.716c1.802 0.092 3.228 1.575 3.228 3.391s-1.426 3.299-3.219 3.391l-0.008 0z"></path>
<path d="M16.936 10.819c2.443-0.009 4.419-1.992 4.419-4.436 0-2.45-1.986-4.436-4.436-4.436s-4.436 1.986-4.436 4.436c0 0.003 0 0.006 0 0.009v-0c0.005 2.446 1.989 4.428 4.436 4.428 0.006 0 0.012 0 0.018-0h-0.001zM16.936 2.497c2.128 0 3.853 1.725 3.853 3.853s-1.725 3.853-3.853 3.853c-2.128 0-3.853-1.725-3.853-3.853v0c0.024-2.11 1.74-3.812 3.853-3.812 0 0 0 0 0 0h-0z"></path>
<path d="M5.143 30.41c1.967 0 3.562-1.595 3.562-3.562s-1.595-3.562-3.562-3.562c-1.967 0-3.562 1.595-3.562 3.562 0 0.003 0 0.006 0 0.009v-0c0.005 1.964 1.598 3.554 3.562 3.554 0 0 0 0 0 0v0zM5.143 23.877c1.646 0 2.979 1.334 2.979 2.979s-1.334 2.979-2.979 2.979c-1.646 0-2.979-1.334-2.979-2.979v0c0-1.645 1.334-2.979 2.979-2.979v0z"></path>
<path d="M27.731 24.343c-1.379 0-2.497 1.118-2.497 2.497s1.118 2.497 2.497 2.497c1.379 0 2.497-1.118 2.497-2.497v0c0-1.379-1.118-2.497-2.497-2.497v0zM27.731 28.779c-0.002 0-0.005 0-0.008 0-1.066 0-1.931-0.864-1.931-1.931s0.864-1.931 1.931-1.931c1.066 0 1.931 0.864 1.931 1.931 0 0.003 0 0.006-0 0.009v-0c0 1.062-0.861 1.922-1.922 1.922v0z"></path>
</svg>
