<!-- Generated by IcoMoon.io -->
<svg version="1.1" xmlns="http://www.w3.org/2000/svg" width="29" height="32" viewBox="0 0 29 32">
<title>back</title>
<path fill="#fff" d="M0 5.808l10.069 5.808v-3.287h4.698c0.008-0 0.018-0 0.028-0 5.028 0 9.104 4.076 9.104 9.104 0 1.124-0.204 2.201-0.576 3.195l0.021-0.063c-0.873 2.56-2.831 4.548-5.311 5.443l-0.061 0.019c-0.952 0.369-2.053 0.583-3.205 0.583-5.028 0-9.104-4.076-9.104-9.104 0-0.026 0-0.051 0-0.077l-0 0.004h-5.663c0 8.045 6.521 14.566 14.566 14.566s14.566-6.521 14.566-14.566c0-8.045-6.521-14.566-14.566-14.566v0h-4.497v-2.868z"></path>
</svg>
