<!-- Generated by IcoMoon.io -->
<svg version="1.1" xmlns="http://www.w3.org/2000/svg" width="32" height="32" viewBox="0 0 32 32">
<title>clock</title>
<path d="M16 0c-8.837 0-16 7.163-16 16s7.163 16 16 16c8.837 0 16-7.163 16-16v0c-0.029-8.825-7.175-15.971-15.997-16h-0.003zM16 28.8c-7.069 0-12.8-5.731-12.8-12.8s5.731-12.8 12.8-12.8c7.069 0 12.8 5.731 12.8 12.8v0c-0.019 7.062-5.738 12.781-12.798 12.8h-0.002z"></path>
<path d="M16.842 8.421h-2.526v9.474l8.421 5.263 1.406-2.248-7.301-4.488v-8z"></path>
</svg>
