<!-- Generated by IcoMoon.io -->
<svg version="1.1" xmlns="http://www.w3.org/2000/svg" width="44" height="32" viewBox="0 0 44 32">
<title>connect</title>
<path fill="#fff" d="M21.939 32l6.4-6.4c-1.679-1.586-3.909-2.604-6.374-2.738l-0.026-0.001z"></path>
<path fill="#fff" d="M21.939 17.374s6.4 0 10.061 4.574l4.574-4.574c-3.688-3.883-8.865-6.322-14.612-6.4l-0.014-0z"></path>
<path fill="#fff" d="M21.939 6.4s11.351-0.207 18.287 7.313l3.661-4.574s-7.313-9.139-21.948-9.139z"></path>
<path fill="#fff" d="M21.939 32l-6.4-6.4c1.679-1.586 3.909-2.604 6.374-2.738l0.026-0.001z"></path>
<path fill="#fff" d="M21.939 17.374s-6.4 0-10.061 4.574l-4.565-4.574c3.688-3.883 8.865-6.322 14.612-6.4l0.014-0z"></path>
<path fill="#fff" d="M21.939 6.4s-11.351-0.207-18.278 7.313l-3.661-4.574s7.313-9.139 21.939-9.139z"></path>
</svg>
