<!-- Generated by IcoMoon.io -->
<svg version="1.1" xmlns="http://www.w3.org/2000/svg" width="35" height="32" viewBox="0 0 35 32">
<title>cycles</title>
<path d="M6.734 16.053c-0.002-0.071-0.002-0.154-0.002-0.238 0-4.288 2.284-8.043 5.702-10.114l0.053-0.030c1.725-1.132 3.84-1.805 6.111-1.805 1.402 0 2.744 0.256 3.982 0.725l-0.077-0.026c4.792 1.693 8.164 6.184 8.164 11.463 0 3.323-1.336 6.334-3.501 8.525l0.001-0.001c-2.159 2.142-5.133 3.466-8.416 3.466-1.893 0-3.682-0.44-5.273-1.223l0.070 0.031-2.979 2.979c2.333 1.387 5.143 2.207 8.146 2.207 4.4 0 8.389-1.761 11.3-4.618l-0.003 0.002c2.925-2.908 4.736-6.935 4.736-11.385 0-8.866-7.187-16.053-16.053-16.053-3.859 0-7.4 1.362-10.169 3.631l0.028-0.023c-3.54 2.838-5.787 7.162-5.787 12.011 0 0.167 0.003 0.334 0.008 0.5l-0.001-0.024z"></path>
<path d="M20.469 15.098c0.768 0.962 0.611 2.365-0.352 3.134s-2.365 0.611-3.134-0.352c-0.768-0.962-0.611-2.365 0.352-3.134s2.365-0.611 3.134 0.351z"></path>
<path d="M9.81 16.045h-9.81l5.351 4.459 4.459-4.459z"></path>
</svg>
