<!-- Generated by IcoMoon.io -->
<svg version="1.1" xmlns="http://www.w3.org/2000/svg" width="45" height="32" viewBox="0 0 45 32">
<title>load</title>
<path fill="#fff" d="M33.262 28.033c3.091-2.719 5.063-6.647 5.172-11.037l0-0.019 6.795 0.389-7.99-8.968-8.968 7.991 6.225 0.361c-0.077 3.308-1.562 6.254-3.877 8.273l-0.013 0.012c-2.154 1.88-4.99 3.027-8.094 3.027-2.104 0-4.085-0.527-5.818-1.455l0.066 0.032-2.999 2.676c2.506 1.681 5.591 2.683 8.909 2.683 4.063 0 7.775-1.502 10.611-3.981l-0.019 0.016zM0 14.757l7.99 8.968 8.968-7.991-6.225-0.361c0.076-3.303 1.558-6.246 3.868-8.264l0.013-0.011c2.162-1.878 5.004-3.022 8.114-3.022 2.099 0 4.076 0.521 5.809 1.441l-0.067-0.033 3.141-2.8c-2.506-1.681-5.591-2.683-8.909-2.683-4.063 0-7.775 1.502-10.611 3.981l0.019-0.016c-3.083 2.725-5.052 6.649-5.172 11.035l-0 0.021z"></path>
</svg>
