<!-- Generated by IcoMoon.io -->
<svg version="1.1" xmlns="http://www.w3.org/2000/svg" width="28" height="32" viewBox="0 0 28 32">
<title>manual-guiding</title>
<path fill="#fff" d="M28.206 10.057v14.93c0 2.331-0.183 4.352-2.002 5.815h-0.046c-0.892 0.734-2.043 1.184-3.298 1.198l-0.003 0h-9.819c-0 0-0 0-0 0-0.989 0-1.885-0.402-2.532-1.051l-10.002-9.993c-0.315-0.313-0.509-0.746-0.509-1.225s0.195-0.912 0.509-1.225l0.128-0.128c0.455-0.458 1.086-0.741 1.783-0.741 0.41 0 0.797 0.098 1.139 0.272l-0.014-0.007 5.385 2.697v-15.36c0.001-0.858 0.35-1.634 0.914-2.194l0.156-0.156c0.175-0.176 0.418-0.284 0.686-0.284s0.51 0.109 0.686 0.284v0l0.101 0.101c0.598 0.596 0.968 1.421 0.969 2.331v9.143h1.755v-11.977c0.002-0.772 0.316-1.47 0.823-1.975l0.21-0.21c0.186-0.187 0.443-0.303 0.727-0.303s0.541 0.116 0.727 0.303l0.192 0.192c0.518 0.517 0.839 1.231 0.841 2.020v11.959h1.755v-10.971c0.009-0.839 0.357-1.595 0.914-2.139l0.001-0.001c0.221-0.22 0.527-0.357 0.864-0.357s0.643 0.136 0.864 0.357l-0-0c0.557 0.544 0.905 1.3 0.914 2.138v10.973h1.664v-6.811c0-1.957 0.914-2.834 1.746-2.834v0c1.774 0.009 1.774 3.291 1.774 5.23z"></path>
</svg>
