<!-- Generated by IcoMoon.io -->
<svg version="1.1" xmlns="http://www.w3.org/2000/svg" width="32" height="32" viewBox="0 0 32 32">
<title>save</title>
<path d="M24.891 0h-21.302c-1.982 0-3.589 1.607-3.589 3.589v0 24.865c0.010 1.96 1.601 3.546 3.563 3.546 0 0 0 0 0 0h24.865c1.969-0.010 3.562-1.603 3.572-3.571v-21.32zM15.888 28.255c-2.969 0-5.375-2.407-5.375-5.375s2.407-5.375 5.375-5.375v0c2.969 0 5.375 2.407 5.375 5.375s-2.407 5.375-5.375 5.375v0zM21.622 10.378h-18.162v-6.919h18.162z"></path>
</svg>
