<!-- Generated by IcoMoon.io -->
<svg version="1.1" xmlns="http://www.w3.org/2000/svg" width="32" height="32" viewBox="0 0 32 32">
<title>saveas</title>
<path d="M24.83 0h-21.277c-1.962 0-3.553 1.591-3.553 3.553v0 24.83c0.010 1.955 1.597 3.536 3.553 3.536 0 0 0 0 0 0h24.83c1.951-0.005 3.531-1.585 3.536-3.536v-21.295zM9.881 26.945h-4.512v-4.521l13.083-13.194 4.521 4.521zM26.414 10.275l-2.021 2.26-4.512-4.495 2.132-2.141c0.212-0.218 0.508-0.353 0.835-0.353s0.623 0.135 0.835 0.352l2.732 2.732c0.214 0.209 0.347 0.5 0.347 0.822s-0.133 0.613-0.347 0.822l-0 0z"></path>
</svg>
