<!-- Generated by IcoMoon.io -->
<svg version="1.1" xmlns="http://www.w3.org/2000/svg" width="43" height="32" viewBox="0 0 43 32">
<title>undo</title>
<path d="M43.064 3.944c-0.015-2.181-1.804-3.944-4.009-3.944-0.009 0-0.018 0-0.028 0l-25.33 0.156c-1.359 0.007-2.566 0.645-3.338 1.634l-0.007 0.010-9.906 12.739c-0.281 0.354-0.45 0.806-0.45 1.297s0.17 0.943 0.454 1.302l-0.004-0.005 9.722 12.878c0.99 1.303 2.549 2.137 4.305 2.137 0.022 0 0.044-0 0.066-0l-0.003 0 24.057-0.147c2.55-0.015 4.612-2.065 4.612-4.592 0-0.009-0-0.018-0-0.027v0.001zM31.368 23.568l-6.036-5.907-5.975 5.985-1.511-1.479 5.975-5.985-6.045-5.916 1.494-1.496 6.062 5.933 5.966-5.985 1.511 1.479-5.992 5.968 6.045 5.907z"></path>
</svg>
