<!-- Generated by IcoMoon.io -->
<svg version="1.1" xmlns="http://www.w3.org/2000/svg" width="49" height="32" viewBox="0 0 49 32">
<title>yumi</title>
<path fill="#707070" d="M8.538 7.887c0.020 0 0.043 0 0.066 0 0.844 0 1.641-0.201 2.348-0.557l-0.030 0.014c2.384-1.089 2.896-0.763 2.896-0.763v0c0.005-1.492 1.204-2.699 2.682-2.699 1.481 0 2.682 1.213 2.682 2.709 0 0.866-0.402 1.636-1.028 2.132l-0.006 0.004c0.851 0.049 2.179-0.052 3.005-0.992 0.416-0.491 0.669-1.134 0.669-1.836 0-0.361-0.067-0.707-0.189-1.025l0.007 0.019s-2.096-2.909-2.835-3.814c-0.826-0.992-3.088-1.771-4.31-0.11-0.069 0.081-0.125 0.175-0.164 0.278l-0.002 0.007c-0.115 0.366-0.212 0.803-0.271 1.252l-0.004 0.041c-0.040 0.353-0.325 0.627-0.677 0.646l-0.002 0-0.442 0.023-0.416-0.734c-0.107-0.188-0.291-0.322-0.508-0.358l-0.004-0.001c-1.082-0.184-4.035-0.572-5.008 0.11-0.038 0.026-0.346 0.284-0.378 0.323-0.291 0.297-1.2 1.817 0.32 4.302 0.328 0.576 0.913 0.972 1.593 1.027l0.007 0z"></path>
<path fill="#707070" d="M16.509 4.567c-1.101 0-1.994 0.902-1.994 2.014v0c0 0.039 0 0.078 0 0.116 0.063 1.061 0.93 1.897 1.99 1.897 1.101 0 1.994-0.902 1.994-2.014s-0.893-2.014-1.994-2.014c-0.001 0-0.002 0-0.003 0h0z"></path>
<path fill="#707070" d="M4.8 12.108c0.864-1.445 1.859-1.416 1.859-1.416-0.090-0.12-0.188-0.226-0.295-0.321l-0.002-0.002s0.592-1.089 0.566-1.865 0.214-0.721 0.214-0.721c-1.024-1.115-1.443-1.962-1.498-3.323-0.051-1.241 0.358-1.674 0.358-1.674-0.883 0.023-5.773 2.24-6.003 4.648s1.984 3.013 1.984 3.013l2.426 2.967c-0.144-0.443 0.39-1.306 0.39-1.306zM2.102 8.986c-0.004 0-0.008 0-0.013 0-0.613 0-1.11-0.502-1.11-1.122s0.497-1.122 1.11-1.122c0.613 0 1.11 0.502 1.11 1.122v0c0 0 0 0 0 0 0 0.615-0.49 1.114-1.097 1.122h-0.001z"></path>
<path fill="#707070" d="M10.109 12.645c-0.989-0.908-3.2-1.636-3.2-1.636-1.184 0.362-2.054 1.399-2.175 2.657l-0.001 0.013 2.688 2.777c0.292-1.651 1.29-3.019 2.661-3.797l0.027-0.014z"></path>
<path fill="#707070" d="M15.475 17.723s0.275-0.76 0.816-0.97c0 0-0.109-1.49-1.92-1.742s-2.355 0.091-2.355 0.091c-0.355-0.089-0.614-0.408-0.614-0.789 0-0.108 0.021-0.212 0.059-0.306l-0.002 0.005c-0.294-0.325-0.608-0.621-0.943-0.889l-0.017-0.013c-0.083-0.036-2.218 1.232-2.515 3.462 0 0 1.222 1.888 2.928 1.697 0 0 0.144 2.188 3.616 2.495 0 0 0.861 0.181 1.040-0.362-0.016-0.006-0.822-0.785-0.093-2.68z"></path>
<path fill="#707070" d="M16.557 20.933c0.742 0.356 3.034 0.381 3.789 0.136 0.083-0.030 0.155-0.075 0.215-0.133l-0 0c1.626 0.646 2.419 0.036 2.474 0.019l-2.176-0.491c0.146-0.459 0.23-0.987 0.23-1.534 0-0.112-0.003-0.223-0.010-0.333l0.001 0.015c-0.015-0.144-0.037-0.272-0.068-0.398l0.004 0.020 2.205 0.090c-0.048-0.032-0.64-0.831-2.384-0.624-0.079-0.13-0.187-0.234-0.316-0.305l-0.004-0.002c-0.815-0.434-1.781-0.689-2.806-0.689-0.078 0-0.155 0.001-0.233 0.004l0.011-0c-1.853 0.11-1.757 2.014-1.763 2.505s0.090 1.364 0.832 1.72z"></path>
<path fill="#707070" d="M15.846 26.405h16.624v5.663h-16.624v-5.663z"></path>
<path fill="#707070" d="M30.173 8.727c-0.637-0.5-1.043-1.274-1.043-2.144 0-1.496 1.201-2.709 2.682-2.709s2.682 1.213 2.682 2.709c0 0 0 0.001 0 0.001v-0s0.515-0.323 2.896 0.763c0.676 0.343 1.474 0.543 2.318 0.543 0.023 0 0.047-0 0.070-0l-0.004 0c0.694-0.051 1.285-0.449 1.611-1.021l0.005-0.010c1.507-2.486 0.595-4.005 0.32-4.302-0.032-0.032-0.339-0.291-0.378-0.323-0.96-0.682-3.926-0.294-5.008-0.123-0.221 0.037-0.405 0.17-0.51 0.355l-0.002 0.004-0.416 0.734-0.442-0.023c-0.354-0.019-0.639-0.293-0.678-0.643l-0-0.003c-0.064-0.49-0.16-0.927-0.29-1.349l0.015 0.056c-0.046-0.105-0.105-0.194-0.177-0.272l0.001 0.001c-1.222-1.645-3.485-0.866-4.31 0.126-0.739 0.889-2.835 3.814-2.835 3.814-0.116 0.298-0.183 0.644-0.183 1.005 0 0.702 0.253 1.345 0.672 1.84l-0.003-0.004c0.829 0.924 2.157 1.025 3.008 0.976z"></path>
<path fill="#707070" d="M31.808 4.567c-0.001 0-0.002 0-0.003 0-1.101 0-1.994 0.902-1.994 2.014s0.893 2.014 1.994 2.014c1.060 0 1.928-0.836 1.99-1.892l0-0.006c0-0.039 0-0.078 0-0.116 0 0 0 0 0 0 0-1.11-0.889-2.010-1.987-2.014h-0z"></path>
<path fill="#707070" d="M48.304 7.434c-0.214-2.395-5.12-4.616-5.978-4.645 0 0 0.406 0.433 0.358 1.674-0.054 1.364-0.474 2.208-1.498 3.323 0 0 0.243-0.055 0.214 0.721s0.566 1.865 0.566 1.865c-0.11 0.097-0.208 0.203-0.294 0.318l-0.004 0.005s0.998-0.026 1.859 1.416c0 0 0.522 0.863 0.378 1.293l2.426-2.967s2.186-0.617 1.971-3.003zM46.218 8.999c-0.613 0-1.11-0.502-1.11-1.122s0.497-1.122 1.11-1.122c0.613 0 1.11 0.502 1.11 1.122v0c-0.007 0.614-0.502 1.109-1.11 1.109-0.001 0-0.002 0-0.003 0h0z"></path>
<path fill="#707070" d="M41.408 11.009s-2.211 0.727-3.2 1.636c1.399 0.792 2.397 2.162 2.683 3.781l0.005 0.033 2.688-2.777c-0.121-1.272-0.991-2.311-2.154-2.667l-0.022-0.006z"></path>
<path fill="#707070" d="M37.834 13.104c-0.352 0.281-0.666 0.577-0.954 0.896l-0.006 0.006c0.036 0.089 0.057 0.192 0.057 0.301 0 0.38-0.259 0.699-0.609 0.787l-0.006 0.001s-0.538-0.346-2.355-0.091-1.92 1.742-1.92 1.742c0.541 0.217 0.816 0.97 0.816 0.97 0.73 1.891-0.077 2.673-0.077 2.673 0.179 0.546 1.040 0.362 1.040 0.362 3.472-0.323 3.616-2.495 3.616-2.495 1.706 0.191 2.928-1.697 2.928-1.697-0.314-2.224-2.448-3.491-2.531-3.455z"></path>
<path fill="#707070" d="M30.838 16.711c-0.066-0.003-0.144-0.004-0.222-0.004-1.025 0-1.991 0.255-2.839 0.706l0.033-0.016c-0.133 0.073-0.241 0.177-0.318 0.303l-0.002 0.004c-1.731-0.207-2.339 0.591-2.384 0.624l2.205-0.090c-0.027 0.106-0.049 0.234-0.063 0.366l-0.001 0.012c-0.006 0.095-0.010 0.206-0.010 0.318 0 0.548 0.084 1.075 0.24 1.571l-0.010-0.037-2.189 0.491c0.054 0.019 0.848 0.646 2.474-0.019v0c0.059 0.057 0.131 0.102 0.21 0.131l0.004 0.001c0.755 0.246 3.046 0.217 3.789-0.136s0.851-1.225 0.842-1.716 0.093-2.411-1.76-2.508z"></path>
<path fill="#707070" d="M21.76 8.65c-0.564 0.486-1.263 0.829-2.032 0.966l-0.026 0.004c-0.274 0.041-0.591 0.065-0.913 0.065-0.408 0-0.807-0.038-1.194-0.11l0.040 0.006 1.405 3.976v2.777c0.765 0.070 1.446 0.381 1.981 0.857l-0.004-0.003s2.086-0.11 2.611 1.177c0.041 0.070 0.068 0.152 0.077 0.24l0 0.002h-2.218c-0.008 0.578-0.055 1.137-0.136 1.684l0.008-0.068 2.24 0.572c-0.287 0.439-0.742 0.745-1.27 0.826l-0.010 0.001c-0.148 0.023-0.319 0.036-0.493 0.036-0.421 0-0.825-0.077-1.198-0.219l0.023 0.008c-0.449 0.205-0.974 0.324-1.526 0.324-0.026 0-0.052-0-0.078-0.001l0.004 0v3.911h10.272v-3.93c-0.022 0-0.048 0.001-0.074 0.001-0.552 0-1.077-0.119-1.55-0.334l0.024 0.010c-0.349 0.133-0.753 0.211-1.174 0.211-0.174 0-0.345-0.013-0.512-0.039l0.019 0.002c-0.538-0.082-0.993-0.389-1.276-0.82l-0.004-0.007 2.24-0.572c-0.073-0.479-0.12-1.038-0.128-1.607l-0-0.009h-2.25c0.008-0.090 0.036-0.173 0.078-0.245l-0.001 0.003c0.525-1.293 2.611-1.177 2.611-1.177 0.531-0.473 1.213-0.784 1.964-0.852l0.013-0.001v-2.76l1.405-3.976c-0.347 0.066-0.746 0.103-1.154 0.103-0.322 0-0.639-0.024-0.949-0.069l0.035 0.004c-0.795-0.141-1.494-0.484-2.064-0.975l0.006 0.005c-0.458-0.414-0.64-0.698-0.902-1.526-0.243-0.776 0.067-2.088 0.067-2.088h-3.168s0.32 1.312 0.067 2.088c-0.25 0.831-0.448 1.115-0.89 1.529z"></path>
</svg>
